<svg width="18" height="18" viewBox="0 0 18 18" fill="none" xmlns="http://www.w3.org/2000/svg">
<path d="M7.52198 0.5C8.82108 0.499857 10.0933 0.869919 11.1897 1.56683C12.286 2.26375 13.161 3.25865 13.7123 4.43499C14.2635 5.61134 14.4681 6.9204 14.3021 8.20884C14.136 9.49728 13.6063 10.7117 12.7749 11.7099L17.4892 16.4242C17.571 16.5002 17.6308 16.5968 17.6623 16.7038C17.6938 16.8109 17.6958 16.9245 17.6682 17.0327C17.6405 17.1408 17.5842 17.2395 17.5052 17.3183C17.4261 17.3971 17.3273 17.4532 17.2191 17.4806C17.1111 17.5083 16.9976 17.5063 16.8906 17.475C16.7836 17.4436 16.687 17.384 16.611 17.3024L11.8966 12.5881C11.053 13.2905 10.0527 13.7794 8.98021 14.0135C7.90772 14.2475 6.79465 14.2198 5.73513 13.9327C4.67562 13.6456 3.70084 13.1075 2.89324 12.3641C2.08564 11.6206 1.46899 10.6935 1.09544 9.66132C0.721894 8.62912 0.60244 7.52214 0.747185 6.43401C0.891929 5.34589 1.29661 4.30862 1.92701 3.40997C2.5574 2.51131 3.39496 1.7777 4.36884 1.27118C5.34271 0.764663 6.42425 0.500145 7.52198 0.5ZM1.92939 7.33531C1.92939 8.06973 2.07405 8.79696 2.3551 9.47548C2.63616 10.154 3.0481 10.7705 3.56742 11.2898C4.08674 11.8091 4.70326 12.2211 5.38179 12.5021C6.06031 12.7832 6.78755 12.9278 7.52198 12.9278C8.2564 12.9278 8.98364 12.7832 9.66216 12.5021C10.3407 12.2211 10.9572 11.8091 11.4765 11.2898C11.9958 10.7705 12.4078 10.154 12.6888 9.47548C12.9699 8.79696 13.1146 8.06973 13.1146 7.33531C13.1146 5.85208 12.5253 4.4296 11.4765 3.3808C10.4277 2.33199 9.00522 1.74278 7.52198 1.74278C6.03873 1.74278 4.61624 2.33199 3.56742 3.3808C2.51861 4.4296 1.92939 5.85208 1.92939 7.33531Z" fill="#363062"/>
</svg>
